PathFileType  4	(X/Y/Z) C:\Users\antoi\Documents\MyRepositories\mobilecap\ResultsAnalysis
DataRate	CameraRate	NumFrames	NumMarkers	Units	OrigDataRate	OrigDataStartFrame	OrigNumFrames
100.0	100.0	4	51	mm	100.0	204	271
Frame#	Time	r_knee			r_shank_antsup			r_ankle			r_calc			r_5meta			r_toe			L_knee			L_shank_antsup			L_ankle			L_calc			L_5meta			L_toe			r_sh2			r_sh3			r_sh4			L_sh2			L_sh3			r_thigh1			r_thigh2			r_thigh3			r_thigh4			r_thigh5			L_thigh1			L_thigh2			L_thigh3			L_thigh4			r.ASIS			r.PSIS			L.ASIS			L.PSIS			C7			R_Shoulder			L_Shoulder			R_Sternum			L_Sternum			R_humerus			R_elbow_med			R_elbow_lat			R_forearm			R_wrist_radius			R_wrist_ulna			L_humerus			L_elbow_med			L_elbow_lat			L_forearm			L_wrist_radius			L_wrist_ulna			R_HJC			L_HJC			R_HJC_reg			L_HJC_reg			
		X1	Y1	Z1	X2	Y2	Z2	X3	Y3	Z3	X4	Y4	Z4	X5	Y5	Z5	X6	Y6	Z6	X7	Y7	Z7	X8	Y8	Z8	X9	Y9	Z9	X10	Y10	Z10	X11	Y11	Z11	X12	Y12	Z12	X13	Y13	Z13	X14	Y14	Z14	X15	Y15	Z15	X16	Y16	Z16	X17	Y17	Z17	X18	Y18	Z18	X19	Y19	Z19	X20	Y20	Z20	X21	Y21	Z21	X22	Y22	Z22	X23	Y23	Z23	X24	Y24	Z24	X25	Y25	Z25	X26	Y26	Z26	X27	Y27	Z27	X28	Y28	Z28	X29	Y29	Z29	X30	Y30	Z30	X31	Y31	Z31	X32	Y32	Z32	X33	Y33	Z33	X34	Y34	Z34	X35	Y35	Z35	X36	Y36	Z36	X37	Y37	Z37	X38	Y38	Z38	X39	Y39	Z39	X40	Y40	Z40	X41	Y41	Z41	X42	Y42	Z42	X43	Y43	Z43	X44	Y44	Z44	X45	Y45	Z45	X46	Y46	Z46	X47	Y47	Z47	X48	Y48	Z48	X49	Y49	Z49	X50	Y50	Z50	X51	Y51	Z51	

204	2.03000000	-72.61526	468.94215	-439.00690	-75.42223	387.71671	-421.78119	-313.14666	115.63245	-444.82146	-384.55716	67.26468	-501.84798	-202.88950	38.67644	-393.02957	-157.07979	56.52981	-447.75810	-74.85590	483.14451	-763.92562	-87.81683	369.39904	-783.51211	-288.33255	111.43708	-751.45128	-362.26518	64.22510	-702.39061	-128.08546	55.43479	-755.99574	-163.73203	32.72462	-816.32116	-135.99949	291.98375	-417.33915	-138.74791	429.29181	-407.39545	-207.99205	336.29747	-408.62792	-162.16640	420.30682	-784.79096	-218.05860	313.09680	-782.48398	-150.30675	771.24559	-384.49877	-91.98758	679.94773	-401.87863	-124.97625	625.58369	-383.11900	-244.74518	708.54076	-398.59922	-176.36154	613.26902	-400.22810	-162.18107	792.90337	-765.29428	-86.19742	677.08529	-772.12074	-259.89779	726.89991	-749.90196	-177.95157	616.42855	-769.96475	-174.36215	918.72479	-435.58721	-354.30405	999.80184	-508.44999	-179.54548	924.15941	-694.26268	-355.73772	1000.73047	-612.66637	-230.99448	1489.10701	-547.79021	-155.81572	1470.38317	-393.95727	-149.11118	1480.43739	-692.88191	-81.03357	1403.35234	-516.18986	-81.37757	1404.92352	-571.05044	-29.26749	1352.60813	-203.26876	29.73945	1238.97245	-198.81240	27.77818	1311.07390	-142.25325	157.32808	1377.09256	-213.81432	242.73752	1410.95682	-280.66059	257.48950	1402.14784	-237.97202	-70.60764	1346.48671	-900.03503	-25.48200	1218.43965	-924.94362	-34.35249	1290.73395	-967.16512	121.18882	1360.08967	-919.49561	192.26798	1403.65482	-870.67639	209.40673	1383.30248	-898.53755	-272.98474	859.63083	-441.92412	-274.81612	863.90906	-672.24558	-263.63870	863.08146	-471.54048	-265.98813	864.60277	-642.31539	
205	2.04000000	-80.13270	478.24775	-436.69033	-82.18065	396.18806	-420.01626	-312.65830	118.08886	-444.39104	-383.46586	70.51049	-502.03517	-202.81723	38.62792	-393.07242	-156.80770	56.34403	-447.69100	-82.87526	492.44042	-764.49969	-94.15827	377.38812	-784.46704	-287.59990	113.32881	-751.98749	-361.45976	67.39604	-702.74290	-128.02266	55.40530	-756.06726	-163.63273	32.66837	-816.48973	-140.07033	298.95015	-415.82599	-146.43018	436.23134	-405.74148	-213.07584	341.54424	-407.65873	-169.85464	426.24158	-785.41376	-222.68255	317.66364	-782.91854	-146.12985	785.01652	-384.52910	-91.35113	691.19308	-401.12503	-126.67489	638.48862	-381.97017	-242.88046	725.87619	-398.86030	-178.45523	628.16136	-399.03485	-156.94989	806.58896	-766.14233	-86.34703	687.40482	-772.90106	-257.38249	744.91553	-751.03674	-180.55029	630.82547	-770.75220	-166.16366	937.73887	-436.25462	-346.79426	1017.60231	-509.12543	-171.38748	943.62310	-694.50506	-348.29823	1018.84507	-613.10035	-236.23105	1509.55207	-547.52536	-161.82068	1498.13549	-396.49481	-153.68173	1507.07465	-689.25428	-84.27474	1427.74472	-515.48249	-84.33441	1429.69927	-570.20761	-30.30054	1392.06825	-202.76978	36.29348	1281.19812	-193.88045	27.62477	1355.08289	-140.47187	150.48284	1429.36042	-214.46571	232.34300	1468.35590	-282.75857	248.00686	1462.62771	-239.21711	-70.47287	1386.17274	-901.34014	-19.68425	1261.50088	-932.37115	-32.63857	1335.44630	-970.50690	116.43893	1413.70280	-918.56474	183.73328	1459.45672	-866.60144	202.01734	1442.36554	-895.81554	-264.47072	877.96242	-442.61514	-266.20851	882.64215	-672.92935	-254.91116	881.46119	-472.26175	-257.37716	883.49882	-642.75667	
206	2.05000000	-89.43204	489.54197	-434.12029	-90.50575	406.58695	-418.08426	-311.74490	121.31173	-443.79385	-381.93634	75.04892	-502.02593	-202.56120	38.63121	-393.00316	-156.46140	56.13337	-447.59732	-92.72149	503.57930	-764.81984	-101.95197	387.08079	-784.94884	-286.60823	116.31305	-753.09077	-360.08610	72.12621	-703.19770	-127.98252	55.43347	-756.06343	-163.48314	32.74172	-816.77071	-145.19781	307.62190	-414.03264	-156.10400	444.57033	-404.23527	-219.51074	347.85893	-406.66583	-179.13379	433.62240	-785.56726	-228.40136	323.48152	-783.06455	-142.10079	800.30319	-384.69815	-91.44901	704.07815	-400.42608	-128.99755	653.11721	-380.90060	-241.25017	745.45610	-398.73782	-181.36604	645.00590	-397.89587	-152.09231	821.76065	-766.97270	-87.50891	699.28841	-773.67777	-255.27536	765.12759	-752.23394	-184.23760	647.12899	-771.17661	-157.28356	958.75949	-437.01370	-338.66998	1037.17822	-509.84356	-162.73658	964.93317	-694.85441	-340.39858	1038.84879	-613.57215	-241.07589	1531.42989	-547.30253	-168.22435	1526.72013	-398.99217	-158.92865	1534.08946	-685.12638	-87.12897	1453.92603	-514.54080	-87.15359	1455.88178	-569.01885	-32.95897	1431.07728	-202.77924	41.94885	1324.38870	-188.85918	25.41254	1397.51531	-139.30890	141.55173	1479.28425	-215.49890	219.80727	1522.97387	-284.84721	235.92878	1519.99344	-240.65926	-71.78390	1425.97400	-901.69835	-17.34164	1304.84836	-938.56628	-33.20674	1379.69014	-972.66145	109.53235	1465.16086	-916.74903	173.74575	1512.64094	-861.77039	192.71429	1498.59936	-892.47445	-255.25415	898.22746	-443.32976	-257.06040	903.21064	-673.63656	-245.37598	901.54604	-473.02888	-248.21266	904.28755	-643.24388	
207	2.06000000	-100.20170	502.77462	-432.56861	-100.48085	419.17011	-416.14655	-310.29507	125.34526	-443.02826	-379.90144	81.32477	-501.53615	-202.03682	38.72321	-392.66105	-156.02854	55.96368	-447.37586	-104.28335	516.88766	-764.84958	-111.08824	399.12120	-785.46836	-284.96330	120.82324	-755.05162	-358.02191	79.03271	-703.97752	-127.99457	55.55634	-755.98876	-163.21763	32.83847	-816.98718	-151.41891	318.13426	-412.13213	-167.77079	454.40555	-402.87496	-227.33226	355.43263	-405.57474	-189.86513	442.86367	-785.38212	-235.01532	331.06453	-782.98568	-138.44325	817.36166	-384.77901	-92.36223	718.61336	-399.99582	-132.32214	669.60886	-379.88945	-240.02224	767.21476	-398.40941	-185.15409	663.86089	-396.94827	-147.67320	838.57630	-767.60885	-89.72396	712.95655	-774.40861	-253.59532	787.46647	-753.00458	-188.95251	665.74754	-771.73713	-147.80910	981.74326	-437.60153	-329.97327	1058.48332	-510.28836	-153.72479	988.18432	-695.57986	-331.97773	1060.71948	-614.11994	-245.54468	1554.81306	-547.05408	-174.93558	1555.53703	-401.01305	-164.52553	1561.30085	-681.27834	-89.85055	1481.56038	-513.76339	-90.02205	1483.10532	-568.35643	-36.89334	1469.25791	-203.01187	44.72392	1366.47103	-185.26148	21.71914	1438.02330	-138.34032	131.22141	1526.53579	-216.56366	205.90383	1574.02121	-286.61203	222.01419	1573.53515	-242.57695	-74.36958	1465.10718	-901.29341	-18.13540	1346.95310	-942.77808	-35.50883	1422.65563	-974.05068	101.24942	1514.30883	-914.65064	162.81925	1563.05313	-856.68506	182.13581	1551.67743	-888.50997	-245.35506	920.35259	-444.05716	-247.44320	925.67224	-674.35422	-235.26458	923.17139	-473.77192	-238.55223	926.83898	-644.06332	
